<svg width="20" height="20" viewBox="0 0 280 280" fill="none" xmlns="http://www.w3.org/2000/svg">
<path fill-rule="evenodd" clip-rule="evenodd" d="M140 240C195.228 240 240 195.228 240 140C240 84.7715 195.228 40 140 40C84.7715 40 40 84.7715 40 140C40 195.228 84.7715 240 140 240ZM140 228C188.601 228 228 188.601 228 140C228 91.3989 188.601 52 140 52C91.3989 52 52 91.3989 52 140C52 188.601 91.3989 228 140 228ZM140 216C181.974 216 216 181.974 216 140C216 98.0264 181.974 64 140 64C98.0264 64 64 98.0264 64 140C64 181.974 98.0264 216 140 216ZM140 204C175.346 204 204 175.346 204 140C204 104.654 175.346 76 140 76C104.654 76 76 104.654 76 140C76 175.346 104.654 204 140 204ZM192 140C192 168.719 168.719 192 140 192C111.281 192 88 168.719 88 140C88 111.281 111.281 88 140 88C168.719 88 192 111.281 192 140ZM180 140C180 162.091 162.091 180 140 180C117.909 180 100 162.091 100 140C100 117.909 117.909 100 140 100C162.091 100 180 117.909 180 140Z" fill="white"/>
</svg>